<svg height="1790" width="720" xmlns="http://www.w3.org/2000/svg">
<rect height="1790" fill="#555" width="720"></rect>
<text fill="#7f7" font-family="Courier New" font-size="12" xml:space="preserve">
<tspan x="10" y="26">10 megabytes installed</tspan>
<tspan x="10" y="42"></tspan>
<tspan x="10" y="58">node_modules</tspan>
<tspan x="10" y="74">└─┬ reveal.js@3.4.1 </tspan>
<tspan x="10" y="90">  ├─┬ express@4.14.1 </tspan>
<tspan x="10" y="106">  │ ├─┬ accepts@1.3.3 </tspan>
<tspan x="10" y="122">  │ │ ├─┬ mime-types@2.1.15 </tspan>
<tspan x="10" y="138">  │ │ │ └── mime-db@1.27.0 </tspan>
<tspan x="10" y="154">  │ │ └── negotiator@0.6.1 </tspan>
<tspan x="10" y="170">  │ ├── array-flatten@1.1.1 </tspan>
<tspan x="10" y="186">  │ ├── content-disposition@0.5.2 </tspan>
<tspan x="10" y="202">  │ ├── content-type@1.0.2 </tspan>
<tspan x="10" y="218">  │ ├── cookie@0.3.1 </tspan>
<tspan x="10" y="234">  │ ├── cookie-signature@1.0.6 </tspan>
<tspan x="10" y="250">  │ ├─┬ debug@2.2.0 </tspan>
<tspan x="10" y="266">  │ │ └── ms@0.7.1 </tspan>
<tspan x="10" y="282">  │ ├── depd@1.1.0 </tspan>
<tspan x="10" y="298">  │ ├── encodeurl@1.0.1 </tspan>
<tspan x="10" y="314">  │ ├── escape-html@1.0.3 </tspan>
<tspan x="10" y="330">  │ ├── etag@1.7.0 </tspan>
<tspan x="10" y="346">  │ ├─┬ finalhandler@0.5.1 </tspan>
<tspan x="10" y="362">  │ │ ├── statuses@1.3.1 </tspan>
<tspan x="10" y="378">  │ │ └── unpipe@1.0.0 </tspan>
<tspan x="10" y="394">  │ ├── fresh@0.3.0 </tspan>
<tspan x="10" y="410">  │ ├── merge-descriptors@1.0.1 </tspan>
<tspan x="10" y="426">  │ ├── methods@1.1.2 </tspan>
<tspan x="10" y="442">  │ ├─┬ on-finished@2.3.0 </tspan>
<tspan x="10" y="458">  │ │ └── ee-first@1.1.1 </tspan>
<tspan x="10" y="474">  │ ├── parseurl@1.3.1 </tspan>
<tspan x="10" y="490">  │ ├── path-to-regexp@0.1.7 </tspan>
<tspan x="10" y="506">  │ ├─┬ proxy-addr@1.1.4 </tspan>
<tspan x="10" y="522">  │ │ ├── forwarded@0.1.0 </tspan>
<tspan x="10" y="538">  │ │ └── ipaddr.js@1.3.0 </tspan>
<tspan x="10" y="554">  │ ├── qs@6.2.0 </tspan>
<tspan x="10" y="570">  │ ├── range-parser@1.2.0 </tspan>
<tspan x="10" y="586">  │ ├─┬ send@0.14.2 </tspan>
<tspan x="10" y="602">  │ │ ├── destroy@1.0.4 </tspan>
<tspan x="10" y="618">  │ │ ├─┬ http-errors@1.5.1 </tspan>
<tspan x="10" y="634">  │ │ │ ├── inherits@2.0.3 </tspan>
<tspan x="10" y="650">  │ │ │ └── setprototypeof@1.0.2 </tspan>
<tspan x="10" y="666">  │ │ ├── mime@1.3.4 </tspan>
<tspan x="10" y="682">  │ │ └── ms@0.7.2 </tspan>
<tspan x="10" y="698">  │ ├── serve-static@1.11.2 </tspan>
<tspan x="10" y="714">  │ ├─┬ type-is@1.6.15 </tspan>
<tspan x="10" y="730">  │ │ └── media-typer@0.3.0 </tspan>
<tspan x="10" y="746">  │ ├── utils-merge@1.0.0 </tspan>
<tspan x="10" y="762">  │ └── vary@1.1.1 </tspan>
<tspan x="10" y="778">  ├─┬ grunt-cli@1.2.0 </tspan>
<tspan x="10" y="794">  │ ├─┬ findup-sync@0.3.0 </tspan>
<tspan x="10" y="810">  │ │ └─┬ glob@5.0.15 </tspan>
<tspan x="10" y="826">  │ │   ├─┬ inflight@1.0.6 </tspan>
<tspan x="10" y="842">  │ │   │ └── wrappy@1.0.2 </tspan>
<tspan x="10" y="858">  │ │   ├─┬ minimatch@3.0.3 </tspan>
<tspan x="10" y="874">  │ │   │ └─┬ brace-expansion@1.1.7 </tspan>
<tspan x="10" y="890">  │ │   │   ├── balanced-match@0.4.2 </tspan>
<tspan x="10" y="906">  │ │   │   └── concat-map@0.0.1 </tspan>
<tspan x="10" y="922">  │ │   ├── once@1.4.0 </tspan>
<tspan x="10" y="938">  │ │   └── path-is-absolute@1.0.1 </tspan>
<tspan x="10" y="954">  │ ├── grunt-known-options@1.1.0 </tspan>
<tspan x="10" y="970">  │ ├─┬ nopt@3.0.6 </tspan>
<tspan x="10" y="986">  │ │ └── abbrev@1.1.0 </tspan>
<tspan x="10" y="1002">  │ └── resolve@1.1.7 </tspan>
<tspan x="10" y="1018">  ├── mustache@2.2.1 </tspan>
<tspan x="10" y="1034">  └─┬ socket.io@1.7.3 </tspan>
<tspan x="10" y="1050">    ├─┬ debug@2.3.3 </tspan>
<tspan x="10" y="1066">    │ └── ms@0.7.2 </tspan>
<tspan x="10" y="1082">    ├─┬ engine.io@1.8.3 </tspan>
<tspan x="10" y="1098">    │ ├── base64id@1.0.0 </tspan>
<tspan x="10" y="1114">    │ ├─┬ debug@2.3.3 </tspan>
<tspan x="10" y="1130">    │ │ └── ms@0.7.2 </tspan>
<tspan x="10" y="1146">    │ ├─┬ engine.io-parser@1.3.2 </tspan>
<tspan x="10" y="1162">    │ │ ├── after@0.8.2 </tspan>
<tspan x="10" y="1178">    │ │ ├── arraybuffer.slice@0.0.6 </tspan>
<tspan x="10" y="1194">    │ │ ├── base64-arraybuffer@0.1.5 </tspan>
<tspan x="10" y="1210">    │ │ ├── blob@0.0.4 </tspan>
<tspan x="10" y="1226">    │ │ └── wtf-8@1.0.0 </tspan>
<tspan x="10" y="1242">    │ └─┬ ws@1.1.2 </tspan>
<tspan x="10" y="1258">    │   ├── options@0.0.6 </tspan>
<tspan x="10" y="1274">    │   └── ultron@1.0.2 </tspan>
<tspan x="10" y="1290">    ├─┬ has-binary@0.1.7 </tspan>
<tspan x="10" y="1306">    │ └── isarray@0.0.1 </tspan>
<tspan x="10" y="1322">    ├── object-assign@4.1.0 </tspan>
<tspan x="10" y="1338">    ├─┬ socket.io-adapter@0.5.0 </tspan>
<tspan x="10" y="1354">    │ └─┬ debug@2.3.3 </tspan>
<tspan x="10" y="1370">    │   └── ms@0.7.2 </tspan>
<tspan x="10" y="1386">    ├─┬ socket.io-client@1.7.3 </tspan>
<tspan x="10" y="1402">    │ ├── backo2@1.0.2 </tspan>
<tspan x="10" y="1418">    │ ├── component-bind@1.0.0 </tspan>
<tspan x="10" y="1434">    │ ├── component-emitter@1.2.1 </tspan>
<tspan x="10" y="1450">    │ ├─┬ debug@2.3.3 </tspan>
<tspan x="10" y="1466">    │ │ └── ms@0.7.2 </tspan>
<tspan x="10" y="1482">    │ ├─┬ engine.io-client@1.8.3 </tspan>
<tspan x="10" y="1498">    │ │ ├── component-emitter@1.2.1 </tspan>
<tspan x="10" y="1514">    │ │ ├── component-inherit@0.0.3 </tspan>
<tspan x="10" y="1530">    │ │ ├─┬ debug@2.3.3 </tspan>
<tspan x="10" y="1546">    │ │ │ └── ms@0.7.2 </tspan>
<tspan x="10" y="1562">    │ │ ├── has-cors@1.1.0 </tspan>
<tspan x="10" y="1578">    │ │ ├── parsejson@0.0.3 </tspan>
<tspan x="10" y="1594">    │ │ ├── parseqs@0.0.5 </tspan>
<tspan x="10" y="1610">    │ │ ├── xmlhttprequest-ssl@1.5.3 </tspan>
<tspan x="10" y="1626">    │ │ └── yeast@0.1.2 </tspan>
<tspan x="10" y="1642">    │ ├── indexof@0.0.1 </tspan>
<tspan x="10" y="1658">    │ ├── object-component@0.0.3 </tspan>
<tspan x="10" y="1674">    │ ├─┬ parseuri@0.0.5 </tspan>
<tspan x="10" y="1690">    │ │ └─┬ better-assert@1.0.2 </tspan>
<tspan x="10" y="1706">    │ │   └── callsite@1.0.0 </tspan>
<tspan x="10" y="1722">    │ └── to-array@0.1.4 </tspan>
<tspan x="10" y="1738">    └─┬ socket.io-parser@2.3.1 </tspan>
<tspan x="10" y="1754">      ├── component-emitter@1.1.2 </tspan>
<tspan x="10" y="1770">      └── json3@3.3.2</tspan>
</text>
</svg>
